<svg width="30" height="30" viewBox="0 0 30 30" fill="none" xmlns="http://www.w3.org/2000/svg">
<g clip-path="url(#clip0_223_219)">
<path d="M15 30C23.2843 30 30 23.2843 30 15C30 6.71573 23.2843 0 15 0C6.71573 0 0 6.71573 0 15C0 23.2843 6.71573 30 15 30Z" fill="#FFD05B"/>
<path d="M20.4285 12.6428L17.9524 7.23804L15 12.6428L11.8095 7.23804L9.5714 12.6428L5.61902 7.23804L6.85711 21.7142H23.1428L24.3809 7.23804L20.4285 12.6428Z" fill="#324A5E"/>
<path d="M15 20.7142C10.5 20.7142 6.85718 21.1666 6.85718 21.738V21.7619C6.97623 22.3095 10.5715 22.738 15 22.738C19.4286 22.738 23.0238 22.3095 23.1429 21.7619V21.738C23.1429 21.1666 19.5 20.7142 15 20.7142Z" fill="#2B3B4E"/>
<path d="M15 14.0238C15.5714 13.3333 16.3333 13.1905 16.8809 13.4047C18.2381 13.9047 18.5476 15.8333 17.3809 17.0476C15 19.5238 15 19.5238 15 19.5238C15 19.5238 15 19.5238 12.5952 17.0238C11.4286 15.8095 11.7619 13.9047 13.0952 13.3809C13.6666 13.1905 14.4286 13.3571 15 14.0238Z" fill="#FF7058"/>
</g>
<defs>
<clipPath id="clip0_223_219">
<rect width="30" height="30" fill="white"/>
</clipPath>
</defs>
</svg>
