<svg width="112" height="112" viewBox="0 0 112 112" fill="none" xmlns="http://www.w3.org/2000/svg">
<g clip-path="url(#clip0_230_566)">
<path d="M24.332 55.9999V14.6087C24.332 11.9192 26.5121 9.73914 29.2016 9.73914H82.7984C85.488 9.73914 87.668 11.9192 87.668 14.6087V55.9999C87.668 58.6895 85.488 60.8695 82.7984 60.8695H29.2016C26.5125 60.8695 24.332 58.6895 24.332 55.9999Z" fill="#A6A199"/>
<path d="M29.204 7.30432H64.8775C66.9016 9.0891 68.1798 11.6988 68.1798 14.6086C68.1798 11.6988 69.4582 9.08888 71.482 7.30432H82.7958C85.4864 7.30432 87.6678 9.48438 87.6678 12.1739V24.3478H77.9238H53.5638C48.1825 24.3478 43.8198 19.9874 43.8198 14.6086C43.8198 19.9872 39.4575 24.3478 34.0758 24.3478H24.3318V12.1739C24.332 9.48438 26.5134 7.30432 29.204 7.30432Z" fill="#88857E"/>
<path d="M17.024 0H58.436C63.8173 0 68.18 4.36034 68.18 9.73919H77.924V0H94.976C100.357 0 104.72 4.36034 104.72 9.73919C104.72 15.1178 100.357 19.4784 94.976 19.4784H53.564V9.73919H43.82C43.82 15.1178 39.4577 19.4784 34.076 19.4784H17.024C11.6428 19.4784 7.28003 15.118 7.28003 9.73919C7.28003 4.36034 11.6428 0 17.024 0Z" fill="#B1ACA3"/>
<path d="M53.564 0H58.436C63.8173 0 68.18 4.36034 68.18 9.73919C68.18 4.36034 72.5428 0 77.924 0H94.976C96.994 0 98.8687 0.613156 100.424 1.66316C100.683 1.83816 100.934 2.02519 101.174 2.22381C102.137 3.01788 102.944 3.99262 103.544 5.09687C104.294 6.47697 104.72 8.05831 104.72 9.73897C104.72 11.0836 104.447 12.3646 103.954 13.5299C103.707 14.1127 103.406 14.6663 103.056 15.1843C102.881 15.4433 102.693 15.6936 102.495 15.934C101.601 17.0161 100.478 17.9023 99.2001 18.5178C98.9162 18.6548 98.6246 18.7782 98.326 18.8871C97.2812 19.2693 96.1529 19.4779 94.9758 19.4779H77.9238H53.5638C48.1826 19.4779 43.8198 15.1176 43.8198 9.73875C43.82 4.36034 48.1828 0 53.564 0Z" fill="#D9D3CC"/>
<path d="M104.965 89.4964L99.3204 92.1271C93.8366 94.6832 87.4235 92.805 84.1208 87.9671L33.0468 111.771C31.8275 112.34 30.3781 111.813 29.8095 110.594L29.7142 110.389C29.1456 109.17 29.673 107.722 30.8923 107.153L81.9663 83.3491C80.3815 77.7103 83.0642 71.5932 88.5481 69.0371L94.1925 66.4066C100.289 63.5653 107.536 66.2015 110.379 72.295L110.856 73.3185C113.699 79.4118 111.061 86.655 104.965 89.4964Z" fill="#90724E"/>
<path d="M102.606 84.9738L97.3709 87.4138C93.713 89.1187 89.3649 87.5367 87.6591 83.8807L87.3725 83.2667C85.6667 79.6107 87.2494 75.2648 90.9073 73.5597L96.142 71.1197C99.7999 69.4148 104.148 70.9966 105.854 74.6528L106.14 75.2668C107.846 78.923 106.263 83.2691 102.606 84.9738Z" fill="#3A2D18"/>
<path d="M85.489 110.298L85.3937 110.503C84.8251 111.721 83.3757 112.249 82.1564 111.681L31.0822 87.8762C27.7795 92.7141 21.3664 94.5923 15.8826 92.0362L1.40721 85.2897C0.187902 84.7214 -0.339723 83.2728 0.229027 82.0542L8.94228 63.3775C9.51081 62.1589 10.9602 61.6314 12.1796 62.1998L26.6549 68.9462C32.1387 71.5023 34.8215 77.6194 33.2366 83.2582L84.3106 107.063C85.5302 107.631 86.0578 109.079 85.489 110.298Z" fill="#5A482F"/>
<path d="M23.7033 86.2693L23.6079 86.474C23.0394 87.6927 21.5899 88.2201 20.3706 87.6518L8.61501 82.1727C7.39569 81.6044 6.86829 80.1559 7.43682 78.9372L7.53219 78.7325C8.10072 77.5138 9.55016 76.9864 10.7695 77.5547L22.5251 83.0337C23.7446 83.6018 24.2718 85.0506 23.7033 86.2693ZM26.1253 75.2016L14.3697 69.7226C13.1503 69.1543 11.7009 69.6817 11.1324 70.9003L11.037 71.1051C10.4685 72.3237 10.9959 73.7723 12.2152 74.3406L23.9708 79.8197C25.1901 80.388 26.6396 79.8606 27.2081 78.6419L27.3035 78.4372C27.872 77.2187 27.3446 75.7699 26.1253 75.2016Z" fill="#D9D3CC"/>
</g>
<defs>
<clipPath id="clip0_230_566">
<rect width="112" height="112" fill="white"/>
</clipPath>
</defs>
</svg>
