<svg width="30" height="30" viewBox="0 0 30 30" fill="none" xmlns="http://www.w3.org/2000/svg">
<g clip-path="url(#clip0_223_127)">
<path d="M15 16.1489C14.1387 16.1489 13.4402 16.8471 13.4402 17.7088C13.4402 18.2864 13.7551 18.7895 14.2219 19.0593V20.7934H15.7781V19.0593C16.2449 18.7896 16.5598 18.2864 16.5598 17.7088C16.5598 16.8471 15.8614 16.1489 15 16.1489Z" fill="black"/>
<path d="M15.0006 8.58521C13.6895 8.58521 12.623 9.65172 12.623 10.9627V13.4947H17.3779V10.9627C17.3778 9.65192 16.3114 8.58521 15.0006 8.58521Z" fill="black"/>
<path d="M14.9998 0.000244141C6.71571 0.000244141 0 6.71616 0 15.0002C0 23.284 6.71571 30.0001 14.9998 30.0001C23.2838 30.0001 30 23.2839 30 15.0002C30 6.71616 23.2838 0.000244141 14.9998 0.000244141ZM19.6088 22.7123H10.3914C9.41796 22.7123 8.62874 21.9231 8.62874 20.9494V15.2574C8.62874 14.4083 9.22945 13.6992 10.0291 13.5324V10.9626C10.0291 8.22168 12.2591 5.99144 15.0003 5.99144C17.7412 5.99144 19.9712 8.22148 19.9712 10.9626V13.5324C20.7705 13.6997 21.3713 14.4083 21.3713 15.2574V20.9494H21.3715C21.3715 21.923 20.5822 22.7123 19.6088 22.7123Z" fill="black"/>
</g>
<defs>
<clipPath id="clip0_223_127">
<rect width="30" height="30" fill="white"/>
</clipPath>
</defs>
</svg>
